<svg width="512" height="512" viewBox="0 0 512 512" fill="none" xmlns="http://www.w3.org/2000/svg">
<rect width="512" height="512" rx="18" fill="url(#paint0_radial_67_4)"/>
<path d="M255.87 179.744C248.148 179.744 240.93 181.177 234.216 184.043C227.613 186.81 221.85 190.664 216.926 195.606C212.114 200.448 208.309 206.279 205.511 213.098C202.825 219.819 201.482 227.083 201.482 234.89C201.482 241.61 202.825 246.7 205.511 250.159C208.309 253.618 212.561 255.348 218.269 255.348C224.759 255.348 230.411 253.766 235.223 250.604C240.035 247.343 243.392 242.747 245.295 236.817C245.407 236.224 245.91 235.73 246.805 235.335C247.701 234.94 248.596 234.692 249.491 234.594C250.498 234.396 251.394 234.347 252.177 234.445C252.96 234.544 253.352 234.841 253.352 235.335C249.659 246.799 245.351 256.534 240.427 264.539C235.503 272.445 230.075 278.869 224.144 283.81C218.213 288.752 211.834 292.31 205.007 294.484C198.293 296.757 191.299 297.893 184.025 297.893C178.877 297.893 174.4 297.3 170.596 296.114C166.791 294.928 163.601 293.298 161.027 291.222C158.565 289.147 156.719 286.726 155.488 283.958C154.145 281.29 153.473 278.424 153.473 275.36C153.473 271.111 154.593 267.306 156.831 263.946C158.957 260.487 162.65 257.67 167.91 255.496C168.469 255.298 168.805 255.446 168.917 255.941C169.141 256.336 169.085 256.731 168.749 257.127C163.265 259.795 160.524 264.687 160.524 271.803C160.524 278.721 162.874 284.354 167.574 288.702C172.274 293.051 178.989 295.225 187.718 295.225C199.804 295.225 210.323 291.568 219.276 284.255C228.34 277.04 235.67 265.329 241.266 249.121C237.797 251.691 233.88 253.865 229.515 255.644C225.151 257.324 220.227 258.164 214.744 258.164C207.581 258.164 202.21 256.385 198.629 252.827C195.048 249.171 193.257 244.328 193.257 238.3C193.257 231.382 194.992 224.217 198.461 216.804C201.93 209.294 206.686 202.474 212.729 196.347C218.884 190.121 226.046 185.031 234.216 181.078C242.385 177.026 251.17 175 260.57 175C265.494 175 269.355 175.939 272.153 177.817C275.062 179.694 276.517 181.967 276.517 184.636C276.517 185.723 276.237 187.008 275.678 188.49C275.118 189.973 274.391 191.504 273.496 193.086C272.6 194.568 271.649 196.05 270.642 197.533C269.635 198.917 268.74 200.152 267.956 201.239C267.509 201.437 267.061 201.437 266.613 201.239C266.278 200.942 266.166 200.597 266.278 200.201C267.844 198.027 268.963 196.1 269.635 194.42C270.418 192.74 270.81 190.911 270.81 188.935C270.81 186.266 269.411 184.092 266.613 182.412C263.927 180.633 260.346 179.744 255.87 179.744Z" fill="#C9A227"/>
<path d="M264.312 242.747C263.976 242.945 263.64 242.895 263.305 242.599C263.081 242.203 263.081 241.858 263.305 241.561C264.871 240.177 266.998 238.596 269.683 236.817C272.369 235.038 275.055 233.556 277.741 232.37C278.636 232.37 279.084 232.815 279.084 233.704C277.629 235.977 276.174 238.448 274.719 241.116C273.376 243.785 272.145 246.453 271.026 249.121C270.019 251.691 269.18 254.211 268.508 256.682C267.837 259.054 267.501 261.03 267.501 262.612C267.501 264.687 268.284 265.725 269.851 265.725C271.082 265.725 272.257 265.28 273.376 264.39C274.607 263.402 276.006 262.117 277.573 260.536C277.797 260.338 278.076 260.388 278.412 260.684C278.748 260.981 278.804 261.327 278.58 261.722C276.566 263.896 274.383 265.873 272.033 267.652C269.795 269.431 267.669 270.32 265.655 270.32C262.745 270.32 261.29 268.689 261.29 265.428C261.29 263.55 261.626 261.327 262.297 258.757C263.081 256.089 264.032 253.42 265.151 250.752C266.27 248.084 267.501 245.514 268.844 243.043C270.299 240.573 271.698 238.448 273.041 236.669C271.81 237.46 270.243 238.497 268.34 239.782C266.55 240.968 265.207 241.956 264.312 242.747ZM279.419 225.996C279.084 226.292 278.748 226.341 278.412 226.144C278.188 225.847 278.021 225.501 277.909 225.106C277.797 224.612 277.741 224.068 277.741 223.475C277.741 222.882 277.909 222.388 278.244 221.993C281.154 218.435 285.239 214.63 290.498 210.578C290.834 210.479 291.17 210.578 291.506 210.875C291.841 211.072 291.897 211.27 291.673 211.468C289.323 213.345 287.085 215.619 284.959 218.287C282.833 220.856 280.986 223.426 279.419 225.996Z" fill="#C9A227"/>
<path d="M315.244 232.963C315.803 233.161 316.027 233.457 315.915 233.852C315.803 234.248 315.3 234.495 314.404 234.594C312.614 234.692 310.6 234.791 308.361 234.89C306.235 234.989 304.053 235.137 301.815 235.335C299.577 240.276 297.73 245.02 296.275 249.566C294.82 254.112 294.093 257.868 294.093 260.833C294.093 264.193 295.548 265.873 298.457 265.873C301.367 265.873 304.556 263.6 308.026 259.054C308.361 258.856 308.697 258.905 309.033 259.202C309.369 259.4 309.48 259.745 309.369 260.24C308.361 261.623 307.186 262.957 305.843 264.242C304.612 265.428 303.325 266.466 301.983 267.355C300.64 268.245 299.353 268.986 298.122 269.579C296.891 270.073 295.884 270.32 295.1 270.32C292.638 270.32 290.792 269.678 289.561 268.393C288.442 267.009 287.882 265.379 287.882 263.501C287.882 260.24 288.665 256.138 290.232 251.197C291.799 246.255 293.757 241.166 296.107 235.928C294.653 236.125 293.254 236.323 291.911 236.521C290.568 236.718 289.281 236.916 288.05 237.114C287.49 237.015 287.323 236.768 287.546 236.373C287.882 235.977 288.386 235.582 289.057 235.187C289.84 234.791 290.736 234.445 291.743 234.149C292.75 233.754 293.701 233.556 294.597 233.556C295.156 233.457 295.604 233.408 295.939 233.408C296.387 233.408 296.835 233.408 297.282 233.408C298.849 230.344 300.416 227.429 301.983 224.661C303.549 221.795 305.116 219.176 306.683 216.804C307.354 216.212 308.082 215.717 308.865 215.322C309.76 214.828 310.6 214.531 311.383 214.433C312.166 214.235 312.782 214.186 313.229 214.284C313.677 214.284 313.845 214.433 313.733 214.729C311.831 217.299 309.928 220.165 308.026 223.327C306.235 226.49 304.501 229.751 302.822 233.111C304.836 233.111 306.851 233.111 308.865 233.111C310.879 233.012 313.006 232.963 315.244 232.963Z" fill="#C9A227"/>
<path d="M354.675 260.981C354.898 260.783 355.178 260.783 355.514 260.981C355.85 261.179 355.962 261.475 355.85 261.87C353.5 264.736 351.149 266.861 348.799 268.245C346.561 269.628 344.659 270.32 343.092 270.32C342.085 270.32 341.246 269.875 340.574 268.986C340.015 268.097 339.623 266.911 339.399 265.428C339.287 263.847 339.343 262.117 339.567 260.24C339.903 258.263 340.406 256.237 341.078 254.162C338.056 258.312 334.867 261.92 331.509 264.983C328.152 267.948 324.907 269.727 321.773 270.32C319.759 270.32 318.024 269.48 316.57 267.8C315.227 266.021 314.555 263.303 314.555 259.647C314.555 256.385 315.283 253.173 316.737 250.011C318.304 246.75 320.375 243.834 322.948 241.265C325.522 238.596 328.488 236.471 331.845 234.89C335.202 233.309 338.728 232.518 342.421 232.518C344.435 232.518 346.17 232.716 347.624 233.111C349.079 233.507 350.422 234.099 351.653 234.89C352.325 234.396 353.22 233.951 354.339 233.556C355.57 233.062 356.689 232.815 357.696 232.815C358.256 232.815 358.424 233.062 358.2 233.556C355.626 236.323 353.388 239.387 351.485 242.747C349.695 246.107 348.296 249.368 347.289 252.531C346.281 255.694 345.61 258.51 345.274 260.981C345.05 263.353 345.274 264.983 345.946 265.873C346.505 266.565 347.512 266.614 348.967 266.021C350.422 265.329 352.324 263.649 354.675 260.981ZM325.466 265.28C326.697 265.28 328.264 264.539 330.167 263.056C332.181 261.475 334.251 259.449 336.378 256.978C338.504 254.508 340.574 251.74 342.588 248.677C344.715 245.514 346.561 242.352 348.128 239.189C347.68 237.904 346.617 236.867 344.939 236.076C343.372 235.285 341.525 234.89 339.399 234.89C336.937 234.89 334.587 235.483 332.349 236.669C330.223 237.756 328.32 239.337 326.641 241.413C324.963 243.389 323.62 245.761 322.613 248.528C321.606 251.296 321.102 254.359 321.102 257.72C321.102 259.894 321.494 261.722 322.277 263.204C323.172 264.588 324.235 265.28 325.466 265.28Z" fill="#C9A227"/>
<path d="M176.972 316.494V316.888C176.723 316.94 176.448 317.091 176.146 317.34C175.845 317.576 175.602 317.995 175.419 318.598L171.702 330.514C171.676 330.514 171.65 330.514 171.624 330.514C171.597 330.514 171.571 330.514 171.545 330.514C171.519 330.514 171.493 330.514 171.466 330.514C171.44 330.514 171.414 330.514 171.388 330.514L167.219 318.146C167.049 317.635 166.859 317.301 166.649 317.143C166.439 316.986 166.243 316.901 166.059 316.888V316.494C166.295 316.507 166.59 316.521 166.944 316.534C167.298 316.547 167.639 316.553 167.966 316.553C168.478 316.553 168.956 316.547 169.402 316.534C169.847 316.521 170.208 316.507 170.483 316.494V316.888C170.09 316.901 169.775 316.94 169.539 317.006C169.316 317.071 169.185 317.215 169.146 317.438C169.12 317.661 169.185 318.028 169.343 318.539L172.272 327.604L171.997 327.84L174.593 319.68C174.829 318.959 174.934 318.402 174.907 318.008C174.894 317.602 174.75 317.32 174.475 317.163C174.199 316.993 173.787 316.901 173.236 316.888V316.494C173.616 316.507 174.003 316.521 174.396 316.534C174.789 316.547 175.156 316.553 175.497 316.553C175.838 316.553 176.12 316.547 176.343 316.534C176.566 316.521 176.775 316.507 176.972 316.494ZM163.228 316.494V316.888C162.887 316.914 162.638 316.979 162.48 317.084C162.336 317.189 162.264 317.36 162.264 317.596C162.277 317.818 162.349 318.133 162.48 318.539L165.528 327.84L165.037 328.331L167.789 319.542L168.084 320.014L164.84 330.514C164.814 330.514 164.787 330.514 164.761 330.514C164.735 330.514 164.709 330.514 164.683 330.514C164.656 330.514 164.63 330.514 164.604 330.514C164.578 330.514 164.552 330.514 164.525 330.514L160.357 318.146C160.186 317.635 159.97 317.301 159.708 317.143C159.446 316.986 159.21 316.901 159 316.888V316.494C159.262 316.507 159.583 316.521 159.963 316.534C160.357 316.547 160.737 316.553 161.104 316.553C161.537 316.553 161.936 316.547 162.303 316.534C162.684 316.521 162.992 316.507 163.228 316.494Z" fill="white"/>
<path d="M179.27 315.374C179.611 315.374 179.905 315.498 180.155 315.747C180.404 315.996 180.528 316.291 180.528 316.632C180.528 316.973 180.404 317.268 180.155 317.517C179.905 317.766 179.611 317.89 179.27 317.89C178.929 317.89 178.634 317.766 178.385 317.517C178.136 317.268 178.011 316.973 178.011 316.632C178.011 316.291 178.136 315.996 178.385 315.747C178.634 315.498 178.929 315.374 179.27 315.374ZM180.292 320.073V328.587C180.292 329.138 180.404 329.511 180.626 329.708C180.862 329.905 181.249 330.003 181.787 330.003V330.416C181.564 330.403 181.223 330.39 180.764 330.376C180.318 330.35 179.866 330.337 179.407 330.337C178.962 330.337 178.509 330.35 178.051 330.376C177.592 330.39 177.251 330.403 177.028 330.416V330.003C177.566 330.003 177.946 329.905 178.169 329.708C178.405 329.511 178.523 329.138 178.523 328.587V322.433C178.523 321.843 178.418 321.41 178.208 321.135C177.998 320.846 177.605 320.702 177.028 320.702V320.289C177.448 320.329 177.854 320.348 178.247 320.348C178.627 320.348 178.988 320.329 179.329 320.289C179.683 320.237 180.004 320.165 180.292 320.073Z" fill="white"/>
<path d="M186.308 320.014C186.833 320.014 187.278 320.099 187.646 320.27C188.013 320.44 188.281 320.597 188.452 320.742C188.884 321.096 189.146 320.86 189.238 320.034H189.69C189.664 320.401 189.645 320.84 189.631 321.351C189.618 321.849 189.612 322.524 189.612 323.376H189.16C189.081 322.891 188.943 322.419 188.747 321.961C188.563 321.502 188.288 321.128 187.921 320.84C187.554 320.538 187.075 320.388 186.485 320.388C186.027 320.388 185.64 320.519 185.325 320.781C185.024 321.03 184.873 321.404 184.873 321.902C184.873 322.295 184.991 322.636 185.227 322.924C185.463 323.199 185.771 323.462 186.151 323.711C186.531 323.947 186.944 324.209 187.39 324.497C187.888 324.812 188.34 325.133 188.747 325.461C189.153 325.788 189.474 326.149 189.71 326.542C189.959 326.935 190.084 327.401 190.084 327.938C190.084 328.541 189.926 329.046 189.612 329.452C189.297 329.859 188.884 330.167 188.373 330.376C187.875 330.586 187.324 330.691 186.721 330.691C186.433 330.691 186.158 330.665 185.896 330.612C185.646 330.573 185.404 330.507 185.168 330.416C185.037 330.35 184.899 330.272 184.755 330.18C184.624 330.088 184.493 329.99 184.362 329.885C184.231 329.78 184.113 329.787 184.008 329.905C183.903 330.009 183.824 330.226 183.772 330.553H183.32C183.346 330.134 183.366 329.623 183.379 329.02C183.392 328.417 183.398 327.617 183.398 326.621H183.851C183.942 327.355 184.073 327.997 184.244 328.548C184.414 329.098 184.683 329.531 185.05 329.846C185.417 330.147 185.928 330.298 186.584 330.298C186.846 330.298 187.108 330.239 187.37 330.121C187.646 330.003 187.875 329.806 188.058 329.531C188.242 329.256 188.334 328.889 188.334 328.43C188.334 327.853 188.124 327.381 187.705 327.014C187.285 326.647 186.754 326.26 186.112 325.854C185.64 325.552 185.194 325.251 184.775 324.949C184.368 324.648 184.034 324.307 183.772 323.927C183.523 323.547 183.398 323.088 183.398 322.551C183.398 321.961 183.529 321.482 183.792 321.115C184.067 320.735 184.427 320.46 184.873 320.289C185.319 320.106 185.797 320.014 186.308 320.014Z" fill="white"/>
<path d="M200.53 315V328.272C200.53 328.862 200.635 329.302 200.845 329.59C201.067 329.865 201.461 330.003 202.024 330.003V330.416C201.618 330.376 201.212 330.357 200.805 330.357C200.425 330.357 200.058 330.376 199.704 330.416C199.363 330.455 199.049 330.527 198.76 330.632V317.36C198.76 316.77 198.655 316.337 198.446 316.062C198.236 315.773 197.843 315.629 197.266 315.629V315.216C197.685 315.256 198.092 315.275 198.485 315.275C198.865 315.275 199.226 315.256 199.566 315.216C199.92 315.164 200.242 315.092 200.53 315ZM196.401 320.014C196.978 320.014 197.515 320.152 198.013 320.427C198.524 320.702 198.865 321.174 199.036 321.843L198.78 322.039C198.596 321.489 198.308 321.089 197.915 320.84C197.535 320.591 197.082 320.466 196.558 320.466C195.785 320.466 195.136 320.866 194.611 321.666C194.1 322.465 193.851 323.698 193.864 325.362C193.864 326.424 193.963 327.309 194.159 328.017C194.369 328.712 194.67 329.236 195.064 329.59C195.47 329.931 195.962 330.101 196.538 330.101C197.089 330.101 197.587 329.865 198.033 329.393C198.478 328.921 198.747 328.227 198.839 327.309L199.075 327.584C198.97 328.581 198.649 329.347 198.111 329.885C197.587 330.422 196.873 330.691 195.968 330.691C195.155 330.691 194.441 330.494 193.825 330.101C193.222 329.708 192.757 329.118 192.429 328.331C192.114 327.545 191.957 326.555 191.957 325.362C191.957 324.169 192.16 323.18 192.566 322.393C192.986 321.594 193.53 320.997 194.198 320.604C194.88 320.211 195.614 320.014 196.401 320.014Z" fill="white"/>
<path d="M207.826 320.014C208.665 320.014 209.419 320.198 210.087 320.565C210.756 320.932 211.287 321.508 211.68 322.295C212.086 323.081 212.289 324.104 212.289 325.362C212.289 326.621 212.086 327.643 211.68 328.43C211.287 329.203 210.756 329.773 210.087 330.14C209.419 330.507 208.665 330.691 207.826 330.691C207 330.691 206.246 330.507 205.565 330.14C204.896 329.773 204.359 329.203 203.952 328.43C203.559 327.643 203.362 326.621 203.362 325.362C203.362 324.104 203.559 323.081 203.952 322.295C204.359 321.508 204.896 320.932 205.565 320.565C206.246 320.198 207 320.014 207.826 320.014ZM207.826 320.407C207.079 320.407 206.463 320.794 205.978 321.567C205.506 322.341 205.27 323.606 205.27 325.362C205.27 327.119 205.506 328.384 205.978 329.157C206.463 329.918 207.079 330.298 207.826 330.298C208.573 330.298 209.183 329.918 209.655 329.157C210.14 328.384 210.382 327.119 210.382 325.362C210.382 323.606 210.14 322.341 209.655 321.567C209.183 320.794 208.573 320.407 207.826 320.407Z" fill="white"/>
<path d="M220.27 320.014C220.728 320.014 221.128 320.08 221.469 320.211C221.81 320.342 222.092 320.525 222.315 320.761C222.564 321.023 222.734 321.364 222.826 321.784C222.918 322.203 222.964 322.721 222.964 323.337V328.587C222.964 329.138 223.075 329.511 223.298 329.708C223.534 329.905 223.92 330.003 224.458 330.003V330.416C224.235 330.403 223.894 330.39 223.435 330.376C222.977 330.35 222.531 330.337 222.098 330.337C221.666 330.337 221.24 330.35 220.82 330.376C220.414 330.39 220.106 330.403 219.896 330.416V330.003C220.368 330.003 220.702 329.905 220.899 329.708C221.096 329.511 221.194 329.138 221.194 328.587V322.904C221.194 322.498 221.168 322.125 221.115 321.784C221.063 321.443 220.932 321.168 220.722 320.958C220.512 320.748 220.171 320.643 219.699 320.643C219.188 320.643 218.729 320.801 218.323 321.115C217.93 321.43 217.615 321.862 217.379 322.413C217.156 322.95 217.045 323.553 217.045 324.222V328.587C217.045 329.138 217.143 329.511 217.34 329.708C217.537 329.905 217.871 330.003 218.343 330.003V330.416C218.133 330.403 217.818 330.39 217.399 330.376C216.993 330.35 216.573 330.337 216.14 330.337C215.708 330.337 215.262 330.35 214.803 330.376C214.345 330.39 214.004 330.403 213.781 330.416V330.003C214.318 330.003 214.699 329.905 214.921 329.708C215.157 329.511 215.275 329.138 215.275 328.587V322.433C215.275 321.843 215.17 321.41 214.961 321.135C214.751 320.846 214.358 320.702 213.781 320.702V320.289C214.2 320.329 214.607 320.348 215 320.348C215.38 320.348 215.741 320.329 216.081 320.289C216.435 320.237 216.757 320.165 217.045 320.073V322.393C217.386 321.541 217.851 320.932 218.441 320.565C219.031 320.198 219.64 320.014 220.27 320.014ZM226.188 320.014C226.647 320.014 227.047 320.08 227.388 320.211C227.729 320.342 228.01 320.525 228.233 320.761C228.482 321.023 228.653 321.364 228.744 321.784C228.836 322.203 228.882 322.721 228.882 323.337V328.587C228.882 329.138 228.993 329.511 229.216 329.708C229.452 329.905 229.839 330.003 230.376 330.003V330.416C230.154 330.403 229.813 330.39 229.354 330.376C228.895 330.35 228.449 330.337 228.017 330.337C227.584 330.337 227.158 330.35 226.739 330.376C226.332 330.39 226.024 330.403 225.815 330.416V330.003C226.287 330.003 226.621 329.905 226.817 329.708C227.014 329.511 227.112 329.138 227.112 328.587V322.904C227.112 322.498 227.086 322.125 227.034 321.784C226.981 321.443 226.85 321.168 226.64 320.958C226.431 320.748 226.09 320.643 225.618 320.643C225.107 320.643 224.648 320.801 224.242 321.115C223.848 321.43 223.534 321.856 223.298 322.393C223.075 322.931 222.964 323.534 222.964 324.202L222.905 322.374C223.258 321.469 223.737 320.853 224.34 320.525C224.943 320.184 225.559 320.014 226.188 320.014Z" fill="white"/>
<path d="M240.989 315.039C241.356 315.039 241.677 315.092 241.952 315.197C242.241 315.288 242.49 315.413 242.7 315.57C242.896 315.728 243.047 315.911 243.152 316.121C243.257 316.331 243.309 316.553 243.309 316.789C243.309 317.091 243.211 317.34 243.014 317.537C242.818 317.733 242.568 317.831 242.267 317.831C241.979 317.831 241.723 317.74 241.5 317.556C241.29 317.36 241.186 317.097 241.186 316.77C241.186 316.494 241.258 316.272 241.402 316.101C241.559 315.931 241.762 315.819 242.011 315.767C241.972 315.649 241.867 315.551 241.697 315.472C241.539 315.38 241.323 315.334 241.048 315.334C240.746 315.334 240.484 315.4 240.261 315.531C240.052 315.662 239.888 315.839 239.77 316.062C239.612 316.337 239.514 316.75 239.475 317.301C239.436 317.838 239.416 318.67 239.416 319.798V320.309H241.52V320.702H239.416V328.39C239.416 329.033 239.599 329.465 239.966 329.688C240.347 329.898 240.858 330.003 241.5 330.003V330.416C241.199 330.403 240.773 330.39 240.222 330.376C239.671 330.35 239.088 330.337 238.472 330.337C238.026 330.337 237.581 330.35 237.135 330.376C236.702 330.39 236.375 330.403 236.152 330.416V330.003C236.689 330.003 237.069 329.905 237.292 329.708C237.528 329.511 237.646 329.138 237.646 328.587V320.702H236.073V320.309H237.646C237.646 319.536 237.679 318.887 237.745 318.362C237.81 317.838 237.915 317.392 238.059 317.025C238.203 316.645 238.4 316.311 238.649 316.022C238.911 315.721 239.245 315.485 239.652 315.315C240.058 315.131 240.504 315.039 240.989 315.039Z" fill="white"/>
<path d="M247.152 320.014C247.991 320.014 248.745 320.198 249.413 320.565C250.082 320.932 250.613 321.508 251.006 322.295C251.412 323.081 251.615 324.104 251.615 325.362C251.615 326.621 251.412 327.643 251.006 328.43C250.613 329.203 250.082 329.773 249.413 330.14C248.745 330.507 247.991 330.691 247.152 330.691C246.326 330.691 245.572 330.507 244.891 330.14C244.222 329.773 243.685 329.203 243.278 328.43C242.885 327.643 242.688 326.621 242.688 325.362C242.688 324.104 242.885 323.081 243.278 322.295C243.685 321.508 244.222 320.932 244.891 320.565C245.572 320.198 246.326 320.014 247.152 320.014ZM247.152 320.407C246.405 320.407 245.789 320.794 245.304 321.567C244.832 322.341 244.596 323.606 244.596 325.362C244.596 327.119 244.832 328.384 245.304 329.157C245.789 329.918 246.405 330.298 247.152 330.298C247.899 330.298 248.509 329.918 248.98 329.157C249.466 328.384 249.708 327.119 249.708 325.362C249.708 323.606 249.466 322.341 248.98 321.567C248.509 320.794 247.899 320.407 247.152 320.407Z" fill="white"/>
<path d="M259.222 320.014C259.576 320.014 259.884 320.086 260.146 320.23C260.421 320.375 260.631 320.565 260.775 320.801C260.933 321.023 261.011 321.279 261.011 321.567C261.011 321.895 260.906 322.184 260.697 322.433C260.5 322.682 260.231 322.806 259.89 322.806C259.615 322.806 259.373 322.721 259.163 322.551C258.953 322.367 258.848 322.111 258.848 321.784C258.848 321.535 258.914 321.325 259.045 321.154C259.189 320.971 259.346 320.827 259.517 320.722C259.425 320.591 259.287 320.525 259.104 320.525C258.698 320.525 258.324 320.65 257.983 320.899C257.642 321.135 257.354 321.443 257.118 321.823C256.882 322.203 256.699 322.61 256.567 323.042C256.436 323.462 256.371 323.855 256.371 324.222V328.39C256.371 329.033 256.554 329.465 256.921 329.688C257.302 329.898 257.813 330.003 258.455 330.003V330.416C258.154 330.403 257.728 330.39 257.177 330.376C256.626 330.35 256.043 330.337 255.427 330.337C254.981 330.337 254.536 330.35 254.09 330.376C253.657 330.39 253.33 330.403 253.107 330.416V330.003C253.644 330.003 254.024 329.905 254.247 329.708C254.483 329.511 254.601 329.138 254.601 328.587V322.433C254.601 321.843 254.496 321.41 254.287 321.135C254.077 320.846 253.684 320.702 253.107 320.702V320.289C253.526 320.329 253.933 320.348 254.326 320.348C254.706 320.348 255.067 320.329 255.407 320.289C255.761 320.237 256.082 320.165 256.371 320.073V322.531C256.515 322.151 256.718 321.771 256.98 321.39C257.256 320.997 257.583 320.669 257.964 320.407C258.344 320.145 258.763 320.014 259.222 320.014Z" fill="white"/>
<path d="M276.404 316.494C276.352 316.953 276.313 317.399 276.286 317.831C276.273 318.264 276.267 318.592 276.267 318.815C276.267 319.051 276.273 319.28 276.286 319.503C276.3 319.713 276.313 319.89 276.326 320.034H275.874C275.795 319.26 275.683 318.651 275.539 318.205C275.395 317.746 275.146 317.425 274.792 317.242C274.451 317.045 273.933 316.947 273.239 316.947H271.607C271.161 316.947 270.82 316.986 270.584 317.065C270.361 317.13 270.211 317.281 270.132 317.517C270.053 317.74 270.014 318.094 270.014 318.579V328.331C270.014 328.803 270.053 329.157 270.132 329.393C270.211 329.629 270.361 329.787 270.584 329.865C270.82 329.931 271.161 329.963 271.607 329.963H273.042C273.868 329.963 274.491 329.852 274.91 329.629C275.343 329.406 275.651 329.046 275.834 328.548C276.031 328.037 276.175 327.348 276.267 326.483H276.719C276.68 326.837 276.66 327.309 276.66 327.899C276.66 328.148 276.667 328.508 276.68 328.98C276.706 329.439 276.745 329.918 276.798 330.416C276.129 330.39 275.375 330.376 274.536 330.376C273.698 330.363 272.95 330.357 272.295 330.357C272.007 330.357 271.633 330.357 271.174 330.357C270.728 330.357 270.243 330.363 269.719 330.376C269.195 330.376 268.664 330.383 268.126 330.396C267.589 330.396 267.078 330.403 266.593 330.416V330.022C267.038 329.996 267.373 329.944 267.595 329.865C267.831 329.787 267.989 329.629 268.067 329.393C268.146 329.157 268.185 328.803 268.185 328.331V318.579C268.185 318.094 268.146 317.74 268.067 317.517C267.989 317.281 267.831 317.124 267.595 317.045C267.373 316.953 267.038 316.901 266.593 316.888V316.494C267.078 316.507 267.589 316.521 268.126 316.534C268.664 316.534 269.195 316.54 269.719 316.553C270.243 316.553 270.728 316.553 271.174 316.553C271.633 316.553 272.007 316.553 272.295 316.553C272.898 316.553 273.58 316.553 274.34 316.553C275.113 316.54 275.801 316.521 276.404 316.494ZM273.022 323.219C273.022 323.219 273.022 323.285 273.022 323.416C273.022 323.547 273.022 323.612 273.022 323.612H269.424C269.424 323.612 269.424 323.547 269.424 323.416C269.424 323.285 269.424 323.219 269.424 323.219H273.022ZM273.593 320.624C273.54 321.371 273.514 321.941 273.514 322.334C273.527 322.728 273.534 323.088 273.534 323.416C273.534 323.743 273.54 324.104 273.553 324.497C273.566 324.89 273.599 325.461 273.652 326.208H273.199C273.147 325.788 273.081 325.382 273.003 324.989C272.937 324.582 272.78 324.255 272.531 324.006C272.295 323.743 271.889 323.612 271.312 323.612V323.219C271.744 323.219 272.072 323.134 272.295 322.963C272.531 322.78 272.701 322.551 272.806 322.275C272.911 322 272.983 321.718 273.022 321.43C273.062 321.128 273.101 320.86 273.14 320.624H273.593Z" fill="white"/>
<path d="M287.305 320.289V320.683C287.056 320.709 286.827 320.82 286.617 321.017C286.407 321.213 286.211 321.561 286.027 322.059L282.802 330.514C282.75 330.514 282.697 330.514 282.645 330.514C282.593 330.514 282.534 330.514 282.468 330.514L278.85 321.803C278.64 321.292 278.431 320.984 278.221 320.879C278.024 320.761 277.854 320.702 277.71 320.702V320.289C277.972 320.302 278.24 320.322 278.516 320.348C278.804 320.361 279.112 320.368 279.44 320.368C279.846 320.368 280.272 320.361 280.718 320.348C281.177 320.335 281.603 320.316 281.996 320.289V320.702C281.668 320.702 281.373 320.728 281.111 320.781C280.862 320.82 280.698 320.945 280.62 321.154C280.554 321.364 280.62 321.725 280.816 322.236L283.274 328.312L283.156 328.41L285.398 322.531C285.568 322.098 285.634 321.757 285.594 321.508C285.568 321.246 285.437 321.05 285.201 320.919C284.978 320.787 284.631 320.709 284.159 320.683V320.289C284.395 320.302 284.598 320.316 284.769 320.329C284.939 320.329 285.103 320.335 285.26 320.348C285.431 320.348 285.614 320.348 285.811 320.348C286.112 320.348 286.381 320.342 286.617 320.329C286.866 320.316 287.095 320.302 287.305 320.289Z" fill="white"/>
<path d="M292.545 320.014C293.698 320.014 294.596 320.368 295.238 321.076C295.894 321.771 296.222 322.859 296.222 324.34H289.281L289.261 323.966H294.334C294.36 323.324 294.308 322.734 294.177 322.197C294.046 321.646 293.836 321.207 293.547 320.879C293.272 320.552 292.912 320.388 292.466 320.388C291.863 320.388 291.326 320.689 290.854 321.292C290.395 321.895 290.12 322.852 290.028 324.163L290.087 324.242C290.061 324.438 290.041 324.654 290.028 324.89C290.015 325.126 290.008 325.362 290.008 325.598C290.008 326.49 290.152 327.257 290.441 327.899C290.729 328.541 291.103 329.033 291.561 329.374C292.033 329.701 292.518 329.865 293.017 329.865C293.41 329.865 293.783 329.806 294.137 329.688C294.491 329.557 294.819 329.347 295.12 329.059C295.422 328.771 295.684 328.384 295.907 327.899L296.3 328.056C296.156 328.489 295.92 328.908 295.592 329.315C295.265 329.721 294.852 330.055 294.354 330.317C293.855 330.566 293.279 330.691 292.623 330.691C291.679 330.691 290.867 330.475 290.185 330.042C289.517 329.61 288.999 329.013 288.632 328.253C288.278 327.479 288.101 326.595 288.101 325.598C288.101 324.445 288.284 323.455 288.651 322.629C289.018 321.79 289.536 321.148 290.205 320.702C290.873 320.243 291.653 320.014 292.545 320.014Z" fill="white"/>
<path d="M303.828 320.014C304.182 320.014 304.49 320.086 304.753 320.23C305.028 320.375 305.238 320.565 305.382 320.801C305.539 321.023 305.618 321.279 305.618 321.567C305.618 321.895 305.513 322.184 305.303 322.433C305.106 322.682 304.838 322.806 304.497 322.806C304.222 322.806 303.979 322.721 303.769 322.551C303.56 322.367 303.455 322.111 303.455 321.784C303.455 321.535 303.52 321.325 303.651 321.154C303.796 320.971 303.953 320.827 304.123 320.722C304.032 320.591 303.894 320.525 303.71 320.525C303.304 320.525 302.93 320.65 302.59 320.899C302.249 321.135 301.96 321.443 301.724 321.823C301.488 322.203 301.305 322.61 301.174 323.042C301.043 323.462 300.977 323.855 300.977 324.222V328.39C300.977 329.033 301.161 329.465 301.528 329.688C301.908 329.898 302.419 330.003 303.062 330.003V330.416C302.76 330.403 302.334 330.39 301.783 330.376C301.233 330.35 300.65 330.337 300.033 330.337C299.588 330.337 299.142 330.35 298.696 330.376C298.264 330.39 297.936 330.403 297.713 330.416V330.003C298.251 330.003 298.631 329.905 298.854 329.708C299.09 329.511 299.208 329.138 299.208 328.587V322.433C299.208 321.843 299.103 321.41 298.893 321.135C298.683 320.846 298.29 320.702 297.713 320.702V320.289C298.133 320.329 298.539 320.348 298.932 320.348C299.312 320.348 299.673 320.329 300.014 320.289C300.368 320.237 300.689 320.165 300.977 320.073V322.531C301.121 322.151 301.325 321.771 301.587 321.39C301.862 320.997 302.19 320.669 302.57 320.407C302.95 320.145 303.37 320.014 303.828 320.014Z" fill="white"/>
<path d="M315.613 320.289V320.683C315.364 320.709 315.134 320.82 314.924 321.017C314.715 321.213 314.518 321.561 314.335 322.059L311.11 330.514H310.776L307.158 321.803C306.909 321.292 306.659 320.984 306.41 320.879C306.174 320.761 305.978 320.702 305.82 320.702V320.289C306.109 320.329 306.41 320.361 306.725 320.388C307.04 320.401 307.38 320.407 307.747 320.407C308.154 320.407 308.58 320.394 309.026 320.368C309.484 320.342 309.91 320.316 310.304 320.289V320.702C309.976 320.702 309.681 320.728 309.419 320.781C309.17 320.82 309.012 320.958 308.947 321.194C308.881 321.417 308.96 321.803 309.183 322.354L311.601 328.351L311.483 328.39L313.725 322.531C313.895 322.098 313.961 321.757 313.922 321.508C313.895 321.246 313.764 321.05 313.528 320.919C313.292 320.787 312.938 320.709 312.467 320.683V320.289C312.703 320.302 312.906 320.316 313.076 320.329C313.247 320.329 313.41 320.335 313.568 320.348C313.738 320.348 313.922 320.348 314.118 320.348C314.42 320.348 314.688 320.342 314.924 320.329C315.173 320.316 315.403 320.302 315.613 320.289ZM311.11 330.514L310.441 332.225C310.31 332.552 310.173 332.828 310.028 333.051C309.897 333.273 309.753 333.457 309.596 333.601C309.386 333.798 309.137 333.929 308.849 333.994C308.56 334.073 308.298 334.112 308.062 334.112C307.813 334.112 307.584 334.066 307.374 333.975C307.177 333.883 307.02 333.745 306.902 333.562C306.784 333.391 306.725 333.182 306.725 332.933C306.725 332.618 306.817 332.362 307 332.166C307.184 331.982 307.439 331.89 307.767 331.89C308.042 331.89 308.278 331.969 308.475 332.126C308.672 332.284 308.77 332.513 308.77 332.815C308.77 333.037 308.717 333.221 308.613 333.365C308.508 333.509 308.383 333.621 308.239 333.699C308.265 333.713 308.285 333.719 308.298 333.719C308.324 333.719 308.344 333.719 308.357 333.719C308.711 333.719 309.026 333.595 309.301 333.346C309.576 333.11 309.819 332.723 310.028 332.185L310.736 330.357L311.11 330.514Z" fill="white"/>
<path d="M325.219 316.278C325.875 316.278 326.373 316.357 326.714 316.514C327.054 316.658 327.356 316.822 327.618 317.006C327.775 317.097 327.9 317.169 327.992 317.222C328.097 317.261 328.195 317.281 328.287 317.281C328.418 317.281 328.509 317.209 328.562 317.065C328.627 316.92 328.68 316.704 328.719 316.416H329.171C329.158 316.639 329.139 316.907 329.112 317.222C329.099 317.523 329.086 317.93 329.073 318.441C329.073 318.939 329.073 319.601 329.073 320.427H328.621C328.582 319.798 328.444 319.195 328.208 318.618C327.972 318.041 327.625 317.569 327.166 317.202C326.72 316.835 326.13 316.652 325.396 316.652C324.701 316.652 324.125 316.861 323.666 317.281C323.22 317.7 322.997 318.251 322.997 318.933C322.997 319.522 323.148 320.021 323.45 320.427C323.751 320.82 324.151 321.181 324.649 321.508C325.16 321.823 325.711 322.164 326.301 322.531C326.982 322.95 327.585 323.37 328.11 323.789C328.647 324.196 329.067 324.648 329.368 325.146C329.683 325.644 329.84 326.247 329.84 326.955C329.84 327.794 329.65 328.489 329.27 329.039C328.89 329.59 328.385 330.003 327.756 330.278C327.127 330.553 326.432 330.691 325.671 330.691C324.977 330.691 324.426 330.612 324.02 330.455C323.613 330.298 323.266 330.134 322.978 329.963C322.689 329.78 322.466 329.688 322.309 329.688C322.178 329.688 322.08 329.76 322.014 329.905C321.962 330.049 321.916 330.265 321.876 330.553H321.424C321.45 330.278 321.464 329.957 321.464 329.59C321.477 329.21 321.483 328.718 321.483 328.115C321.496 327.512 321.503 326.752 321.503 325.834H321.955C322.008 326.621 322.152 327.355 322.388 328.037C322.637 328.718 323.01 329.269 323.509 329.688C324.02 330.095 324.695 330.298 325.534 330.298C325.966 330.298 326.373 330.213 326.753 330.042C327.146 329.859 327.467 329.577 327.716 329.197C327.965 328.803 328.09 328.299 328.09 327.683C328.09 327.145 327.959 326.68 327.697 326.287C327.448 325.88 327.094 325.507 326.635 325.166C326.176 324.812 325.639 324.451 325.023 324.084C324.406 323.704 323.83 323.317 323.292 322.924C322.755 322.531 322.322 322.079 321.994 321.567C321.68 321.043 321.523 320.414 321.523 319.68C321.523 318.906 321.693 318.271 322.034 317.772C322.388 317.261 322.847 316.888 323.41 316.652C323.974 316.403 324.577 316.278 325.219 316.278Z" fill="white"/>
<path d="M336.192 320.014C337.031 320.014 337.785 320.198 338.453 320.565C339.122 320.932 339.653 321.508 340.046 322.295C340.452 323.081 340.655 324.104 340.655 325.362C340.655 326.621 340.452 327.643 340.046 328.43C339.653 329.203 339.122 329.773 338.453 330.14C337.785 330.507 337.031 330.691 336.192 330.691C335.366 330.691 334.612 330.507 333.931 330.14C333.262 329.773 332.725 329.203 332.318 328.43C331.925 327.643 331.728 326.621 331.728 325.362C331.728 324.104 331.925 323.081 332.318 322.295C332.725 321.508 333.262 320.932 333.931 320.565C334.612 320.198 335.366 320.014 336.192 320.014ZM336.192 320.407C335.445 320.407 334.829 320.794 334.344 321.567C333.872 322.341 333.636 323.606 333.636 325.362C333.636 327.119 333.872 328.384 334.344 329.157C334.829 329.918 335.445 330.298 336.192 330.298C336.939 330.298 337.549 329.918 338.021 329.157C338.506 328.384 338.748 327.119 338.748 325.362C338.748 323.606 338.506 322.341 338.021 321.567C337.549 320.794 336.939 320.407 336.192 320.407Z" fill="white"/>
<path d="M351.074 320.073V328.292C351.074 328.882 351.179 329.321 351.388 329.61C351.611 329.885 352.005 330.022 352.568 330.022V330.435C352.162 330.396 351.755 330.376 351.349 330.376C350.969 330.376 350.602 330.396 350.248 330.435C349.907 330.475 349.593 330.547 349.304 330.652V328.331C348.976 329.184 348.511 329.793 347.908 330.16C347.318 330.514 346.709 330.691 346.079 330.691C345.621 330.691 345.221 330.625 344.88 330.494C344.539 330.363 344.257 330.18 344.034 329.944C343.785 329.682 343.615 329.341 343.523 328.921C343.431 328.502 343.386 327.984 343.386 327.368V322.433C343.386 321.843 343.281 321.41 343.071 321.135C342.861 320.846 342.468 320.702 341.891 320.702V320.289C342.311 320.329 342.717 320.348 343.11 320.348C343.49 320.348 343.851 320.329 344.192 320.289C344.546 320.237 344.867 320.165 345.155 320.073V327.801C345.155 328.207 345.181 328.581 345.234 328.921C345.286 329.262 345.417 329.537 345.627 329.747C345.837 329.957 346.178 330.062 346.65 330.062C347.161 330.062 347.613 329.905 348.006 329.59C348.413 329.275 348.727 328.849 348.95 328.312C349.186 327.774 349.304 327.171 349.304 326.503V322.433C349.304 321.843 349.199 321.41 348.99 321.135C348.78 320.846 348.387 320.702 347.81 320.702V320.289C348.229 320.329 348.636 320.348 349.029 320.348C349.409 320.348 349.77 320.329 350.11 320.289C350.464 320.237 350.785 320.165 351.074 320.073Z" fill="white"/>
<path d="M356.698 315V328.587C356.698 329.138 356.81 329.511 357.033 329.708C357.269 329.905 357.655 330.003 358.193 330.003V330.416C357.97 330.403 357.629 330.39 357.17 330.376C356.725 330.35 356.272 330.337 355.814 330.337C355.368 330.337 354.916 330.35 354.457 330.376C353.998 330.39 353.657 330.403 353.434 330.416V330.003C353.972 330.003 354.352 329.905 354.575 329.708C354.811 329.511 354.929 329.138 354.929 328.587V317.36C354.929 316.77 354.824 316.337 354.614 316.062C354.404 315.773 354.011 315.629 353.434 315.629V315.216C353.854 315.256 354.26 315.275 354.654 315.275C355.034 315.275 355.394 315.256 355.735 315.216C356.089 315.164 356.41 315.092 356.698 315Z" fill="white"/>
<defs>
<radialGradient id="paint0_radial_67_4" cx="0" cy="0" r="1" gradientUnits="userSpaceOnUse" gradientTransform="translate(256 256) rotate(90) scale(256)">
<stop stop-color="#2C2A6C"/>
<stop offset="1" stop-color="#005A9C"/>
</radialGradient>
</defs>
</svg>
